/* XPM */
static char *_e91168798b64a4edb2b03904f0c89e8H41anbGOHQLySfUn[] = {
/* columns rows colors chars-per-pixel */
"544 32 11 1 ",
"  c None",
". c #211F30",
"X c #D2612F",
"o c #28860F",
"O c #72A11D",
"+ c #E1CA33",
"@ c #E68D41",
"# c #A4CC42",
"$ c #F7EC8A",
"% c #FBDFB1",
"& c #FAF7CD",
/* pixels */
"                                                                                                                                                                                                                                                                                                                                                                                                                                                                                                                                                                ",
"                                                                                                                                                                                                                                                                                                                                                                                                                                                                                                                                                                ",
"                                                                                                                                                                                                                                                                                                                                                                                                                                                                                                                                                                ",
"                                                                                                                                                                                                                                                                                                                                                                                                                                                                                                                                                                ",
"                                                                                                                                                                                                                                                                                                                                                                                                                                                                                                                                                                ",
"                                                                                                                                                                                                                                                                                                                                                                                                                                                                                                                                                                ",
"                                                                                                                                                                                                                                                                                                                                                                                                                                                                                                                                                                ",
"                                                                                                                                                                                                                                                                                                                                                                                                                                                                                                                                                                ",
"                                                                                                                                                                                                              ....                            ....                            ....                                                                                                                                                                                                                                                                              ",
"              ....                            ....                            ....                            ....                            ....                            ....                           .+++%.                          .+++%.                          .+++%.                           ....                            ....                                                                                                                                                                                                              ",
"            ..+++%..                        ..+++%..                        ..+++%..                        ..+++%..                        ..+++%..                         .+++%.                         .$+$$+%...                      .$+$$+%...                      .$+$$+%...                       .+++%.                          .+++%.                           ....                                                                                                                            ....                            ....              ",
"           .$$+$$+%X. ..                   .$$+$$+%X. ..                   .$$+$$+%X. ..                   .$$+$$+%X. ..                   .$$+$$+%X. ..                    .$+$$+%. ..                     .$+$$+%.O#.                     .$+$$+%.O#.                     .$+$$+%.O#.                     .$+$$+%. ..                     .$+$$+%. ..                     ..+++%..                         ......                          ......                          ......                         ..+++%..                        ..+++%..            ",
"          .$$&&&$+%XX.O#.                 .$$&&&$+%XX.O#.                 .$$&&&$+%XX.O#.                 .$$&&&$+%XX.O#.                 .$$&&&$+%XX.O#.                  .$&&&$+%X.O#.                    .&&&$+%.oO#.                    .&&&$+%.oO#.                    .&&&$+%.oO#.                   .$&&&$+%X.O#.                   .$&&&$+%X.O#.                   .$$+$$+%X. ..                  ...$+$$$%... ...                ...$+$$$%... ...                ...$+$$$%... ...                 .$$+$$+%X. ..                   .$$+$$+%X. ..        ",
"          .++&&&++%@X.oO#.                .++&&&++%@X.oO#.                .++&&&++%@X.oO#.                .++&&&++%@X.oO#.                .++&&&++%@X.oO#.                 .+&&&++%X.oO#.                  .$&&&++%X.O#.                   .$&&&++%X.O#.                   .$&&&++%X.O#.                   .+&&&++%X.oO#.                  .+&&&++%X.oO#.                 .+$&&&$+%@X.O#.                .+$$&&&$$+%@X.O##.              .+$$&&&$$+%@X.O##.              .+$$&&&$$+%@X.O##.               .+$&&&$+%@X.O#.                 .+$&&&$+%@X.O#.       ",
"         .+$$&&&$%@X@X.o.                .+$$&&&$%@X@X.o.                .+$$&&&$%@X@X.o.                .+$$&&&$%@X@X.o.                .+$$&&&$%@X@X.o.                 .+$&&&$%X@X.o.                   .$&&&$%XX.o.                    .$&&&$%XX.o.                    .$&&&$%XX.o.                   .+$&&&$%X@X.o.                  .+$&&&$%X@X.o.                 .+++&&&+%@X@X.O#.              .++++&&&++%@X@X.OO#.            .++++&&&++%@X@X.OO#.            .++++&&&++%@X@X.OO#.             .+++&&&+%@X@X.O#.               .+++&&&+%@X@X.O#.      ",
"         .+$$$+$$%@@@X..                 .+$$$+$$%@@@X..                 .+$$$+$$%@@@X..                 .+$$$+$$%@@@X..                 .+$$$+$$%@@@X..                  .+$$+$$%@@X..                    .$$+$$%@X..                     .$$+$$%@X..                     .$$+$$%@X..                    .+$$+$$%@@X..                   .+$$+$$%@@X..                  .+$$&&&$%@@@X.o.               .+$$$&&&$$%@@@X.oo.             .+$$$&&&$$%@@@X.oo.             .+$$$&&&$$%@@@X.oo.              .+$$&&&$%@@@X.o.                .+$$&&&$%@@@X.o.       ",
"         .+$$$++%@@@XX.                  .+$$$++%@@@XX.                  .+$$$++%@@@XX.                  .+$$$++%@@@XX.                  .+$$$++%@@@XX.                   .+$$++%@@XX.                     .$$+$%@@X.                      .$$+$%@@X.                      .$$+$%@@X.                     .+$$++%@@XX.                    .+$$++%@@XX.                   .+$$$+$%@@@XX..                .+$$$$+$$%@X@XX...              .+$$$$+$$%@X@XX...              .+$$$$+$$%@X@XX...               .+$$$+$%@@@XX..                 .+$$$+$%@@@XX..        ",
"         .%+++%%@@@@@X.                  .%+++%%@@@@@X.                  .%+++%%@@@@@X.                  .%+++%%@@@@@X.                  .%+++%%@@@@@X.                   .%++%%@@@@X.                     .$$++%@XX.                      .$$++%@XX.                      .$$++%@XX.                     .%+++%@@@@X.                    .%+++%@@@@X.                   .%+++%%@@X@@X.                 .%+++%%%%X@@@@X.                .%+++%%%%X@@@@X.                .%+++%%%%X@@@@X.                 .%+++%%@@X@@X.                  .%+++%%@@X@@X.         ",
"          .%%%X@X@X@@.                    .%%%X@X@X@@.                    .%%%X@X@X@@.                    .%%%X@X@X@@.                    .%%%X@X@X@@.                     .%%X@X@X@.                      .%++%@@@X.                      .%++%@@@X.                      .%++%@@@X.                      .%%%@X@X@.                      .%%%@X@X@.                     .%%%X@X@@@X.                   .%%%XXXX@@XXX.                  .%%%XXXX@@XXX.                  .%%%XXXX@@XXX.                   .%%%X@X@@@X.                    .%%%X@X@@@X.          ",
"          .XXXX@@@@@X.                    .XXXX@@@@@X.                    .XXXX@@@@@X.                    .XXXX@@@@@X.                    .XXXX@@@@@X.                     .XXX@@@@X.                       .%%X@X@.                        .%%X@X@.                        .%%X@X@.                       .XXX@@@@X.                      .XXX@@@@X.                      .XXXX@@XX.                     ...XXXXXX...                    ...XXXXXX...                    ...XXXXXX...                     .XXXX@@XX.                      .XXXX@@XX.           ",
"           .XXXX@@XX.                      .XXXX@@XX.                      .XXXX@@XX.                      .XXXX@@XX.                      .XXXX@@XX.                       .XXX@@X.                        .XX@@@@.                        .XX@@@@.                        .XX@@@@.                        .XXX@@X.                        .XXX@@X.                        ..XXXX..                         ......                          ......                          ......                         ..XXXX..                        ..XXXX..            ",
"            ..XXXX..                        ..XXXX..                        ..XXXX..                        ..XXXX..                        ..XXXX..                         .XXXX.                         .XXX@@X.                        .XXX@@X.                        .XXX@@X.                         .XXXX.                          .XXXX.                           ....                                                                                                                            ....                            ....              ",
"              ....                            ....                            ....                            ....                            ....                            ....                           .XXXX.                          .XXXX.                          .XXXX.                           ....                            ....                                                                                                                                                                                                              ",
"                                                                                                                                                                                                              ....                            ....                            ....                                                                                                                                                                                                                                                                              ",
"                                                                                                                                                                                                                                                                                                                                                                                                                                                                                                                                                                ",
"                                                                                                                                                                                                                                                                                                                                                                                                                                                                                                                                                                ",
"                                                                                                                                                                                                                                                                                                                                                                                                                                                                                                                                                                ",
"                                                                                                                                                                                                                                                                                                                                                                                                                                                                                                                                                                ",
"                                                                                                                                                                                                                                                                                                                                                                                                                                                                                                                                                                ",
"                                                                                                                                                                                                                                                                                                                                                                                                                                                                                                                                                                ",
"                                                                                                                                                                                                                                                                                                                                                                                                                                                                                                                                                                ",
"                                                                                                                                                                                                                                                                                                                                                                                                                                                                                                                                                                "
};
